<?xml version="1.0" encoding="UTF-8"?>
<svg xmlns="http://www.w3.org/2000/svg" xmlns:xlink="http://www.w3.org/1999/xlink" width="50pt" height="50pt" viewBox="0 0 50 50" version="1.1">
<g id="surface1">
<path style=" stroke:none;fill-rule:nonzero;fill:rgb(90.196078%,90.196078%,90.196078%);fill-opacity:1;" d="M 25.980469 6.664062 L 41.433594 41.699219 C 41.867188 42.691406 41.421875 43.847656 40.429688 44.285156 C 40.183594 44.394531 39.914062 44.449219 39.640625 44.449219 C 38.203125 44.449219 33.152344 40.714844 21.488281 33.246094 C 16.734375 30.199219 15.042969 24.054688 17.570312 19.003906 L 23.757812 6.648438 C 23.972656 6.21875 24.410156 5.949219 24.886719 5.949219 C 25.359375 5.949219 25.789062 6.230469 25.980469 6.664062 Z M 25.980469 6.664062 "/>
<path style=" stroke:none;fill-rule:evenodd;fill:rgb(10.980392%,78.039216%,86.666667%);fill-opacity:1;" d="M 19.199219 38.851562 C 19.199219 41.941406 16.691406 44.449219 13.601562 44.449219 C 10.507812 44.449219 8 41.941406 8 38.851562 C 8 35.757812 10.507812 33.25 13.601562 33.25 C 16.691406 33.25 19.199219 35.757812 19.199219 38.851562 Z M 19.199219 38.851562 "/>
</g>
</svg>
